<svg width="25" height="24" viewBox="0 0 25 24" fill="none" xmlns="http://www.w3.org/2000/svg">
<path d="M22.6331 4.84999V16.74C22.6331 17.71 21.8431 18.6 20.8731 18.72L20.5631 18.76C18.9231 18.98 16.6131 19.66 14.7531 20.44C14.1031 20.71 13.3831 20.22 13.3831 19.51V5.59999C13.3831 5.22999 13.5931 4.88999 13.9231 4.70999C15.7531 3.71999 18.5231 2.83999 20.4031 2.67999H20.4631C21.6631 2.67999 22.6331 3.64999 22.6331 4.84999Z" fill="white"/>
<path d="M11.343 4.70999C9.51305 3.71999 6.74305 2.83999 4.86305 2.67999H4.79305C3.59305 2.67999 2.62305 3.64999 2.62305 4.84999V16.74C2.62305 17.71 3.41305 18.6 4.38305 18.72L4.69305 18.76C6.33305 18.98 8.64305 19.66 10.503 20.44C11.153 20.71 11.873 20.22 11.873 19.51V5.59999C11.873 5.21999 11.673 4.88999 11.343 4.70999ZM5.63305 7.73999H7.88305C8.29305 7.73999 8.63305 8.07999 8.63305 8.48999C8.63305 8.90999 8.29305 9.23999 7.88305 9.23999H5.63305C5.22305 9.23999 4.88305 8.90999 4.88305 8.48999C4.88305 8.07999 5.22305 7.73999 5.63305 7.73999ZM8.63305 12.24H5.63305C5.22305 12.24 4.88305 11.91 4.88305 11.49C4.88305 11.08 5.22305 10.74 5.63305 10.74H8.63305C9.04305 10.74 9.38305 11.08 9.38305 11.49C9.38305 11.91 9.04305 12.24 8.63305 12.24Z" fill="white"/>
</svg>
