<svg width="24" height="24" viewBox="0 0 24 24" fill="none" xmlns="http://www.w3.org/2000/svg">
<path opacity="0.4" d="M20.6 4.09998V6.29998C20.6 7.09998 20.1 8.09998 19.6 8.59998L15.3 12.4C14.7 12.9 14.3 13.9 14.3 14.7V19C14.3 19.6 13.9 20.4 13.4 20.7L12 21.6C10.7 22.4 8.90001 21.5 8.90001 19.9V14.6C8.90001 13.9 8.50001 13 8.10001 12.5L7.10001 11.45L12.92 2.09998H18.6C19.7 2.09998 20.6 2.99998 20.6 4.09998Z" fill="#38568E"/>
<path d="M11.3 2.09998L6.11999 10.41L4.29999 8.49998C3.79999 7.99998 3.39999 7.09998 3.39999 6.49998V4.19998C3.39999 2.99998 4.29999 2.09998 5.39999 2.09998H11.3Z" fill="#3B578E" fill-opacity="0.7"/>
</svg>
