<svg width="15" height="23" viewBox="0 0 15 23" fill="none" xmlns="http://www.w3.org/2000/svg">
<path fill-rule="evenodd" clip-rule="evenodd" d="M2.63542 1.4375C1.97321 1.4375 1.4375 1.97321 1.4375 2.63542V19.8854C1.4375 20.5476 1.97321 21.0833 2.63542 21.0833H12.2188C12.881 21.0833 13.4167 20.5476 13.4167 19.8854V2.63542C13.4167 1.97321 12.881 1.4375 12.2188 1.4375H2.63542ZM0 2.63542C0 1.17875 1.17875 0 2.63542 0H12.2188C13.6754 0 14.8542 1.17875 14.8542 2.63542V19.8854C14.8542 21.3421 13.6754 22.5208 12.2188 22.5208H2.63542C1.17875 22.5208 0 21.3421 0 19.8854V2.63542Z" fill="#11214A"/>
<path fill-rule="evenodd" clip-rule="evenodd" d="M4.79165 18.9271C4.79165 18.5303 5.11365 18.2083 5.5104 18.2083H9.34374C9.74049 18.2083 10.0625 18.5303 10.0625 18.9271C10.0625 19.3238 9.74049 19.6458 9.34374 19.6458H5.5104C5.11365 19.6458 4.79165 19.3238 4.79165 18.9271ZM4.75811 1.4375L4.93061 1.78537C4.97182 1.86396 5.05328 1.91667 5.14336 1.91667H9.71078C9.80086 1.91667 9.88232 1.86396 9.92353 1.78537L10.096 1.4375H4.75811ZM2.98328 0.340208C3.11457 0.131292 3.34265 0 3.59374 0H11.2604C11.5077 0 11.7396 0.131292 11.8709 0.340208C12.0012 0.553917 12.0127 0.8165 11.9044 1.04075L11.2077 2.42554C10.9269 2.99479 10.3433 3.35417 9.71078 3.35417H5.14336C4.51086 3.35417 3.92724 2.99479 3.64645 2.42554L2.94974 1.04075C2.83761 0.8165 2.85295 0.550083 2.98328 0.340208Z" fill="#11214A"/>
</svg>
