<svg width="16" height="17" viewBox="0 0 16 17" fill="none" xmlns="http://www.w3.org/2000/svg">
<path fill-rule="evenodd" clip-rule="evenodd" d="M15.7626 15.1534L13.0484 12.5016L12.9869 12.406C12.8669 12.2852 12.7066 12.2205 12.5368 12.2205C12.3703 12.2205 12.2069 12.2852 12.09 12.406C9.78317 14.521 6.23053 14.6355 3.78474 12.6737C1.33896 10.7095 0.762639 7.27998 2.43711 4.65656C4.11159 2.03393 7.51659 1.03288 10.3934 2.31577C13.2711 3.59867 14.7292 6.76761 13.7984 9.72261C13.7337 9.93893 13.7858 10.1702 13.9429 10.3337C14.0976 10.4971 14.3321 10.565 14.554 10.5152C14.7758 10.4663 14.955 10.3021 15.0229 10.0897C16.1329 6.58367 14.4553 2.80919 11.0755 1.20735C7.69501 -0.392122 3.62448 0.662615 1.50001 3.69025C-0.625256 6.71867 -0.16894 10.8081 2.57606 13.3187C5.31711 15.826 9.52422 15.9981 12.4721 13.7229L14.8745 16.0724C15.1216 16.3163 15.5219 16.3163 15.7721 16.0724C16.0184 15.8284 16.0184 15.4337 15.7721 15.1874L15.7626 15.1534Z" fill="white"/>
</svg>
